<svg xmlns="http://www.w3.org/2000/svg" viewBox="0 0 1800 500"><defs><style>.cls-1{fill:#4e4d4e}.cls-2{fill:#97445a}.cls-3{fill:#9987d8}.cls-4{fill:#5dacb7}.cls-5{fill:#c1744f}.cls-6{fill:#8fbe61}.cls-7{fill:#cfb14e}.cls-8{fill:#727172}.cls-9{fill:#ff6188}.cls-10{fill:#a9dc76}.cls-11{fill:#ab9df2}.cls-12{fill:#78dce8}.cls-13{fill:#fc9867}.cls-14{fill:#ffd866}</style></defs><g id="Layer_2" data-name="Layer 2"><g id="Layer_1-2" data-name="Layer 1"><rect width="200" height="200" x="200" y="150" class="cls-1"/><rect width="200" height="200" x="400" y="150" class="cls-2"/><rect width="200" height="200" x="1000" y="150" class="cls-3"/><rect width="200" height="200" x="1200" y="150" class="cls-4"/><rect width="200" height="200" x="1400" y="150" class="cls-5"/><rect width="200" height="100" class="cls-1"/><rect width="200" height="100" x="200" class="cls-2"/><rect width="200" height="100" x="400" class="cls-6"/><rect width="200" height="100" x="600" class="cls-7"/><rect width="200" height="100" x="800" class="cls-3"/><rect width="200" height="100" x="1000" class="cls-4"/><rect width="200" height="100" x="1200" class="cls-5"/><rect width="200" height="100" x="400" y="400" class="cls-1"/><rect width="200" height="100" x="600" y="400" class="cls-2"/><rect width="200" height="100" x="800" y="400" class="cls-6"/><rect width="200" height="100" x="1000" y="400" class="cls-7"/><rect width="200" height="100" x="1200" y="400" class="cls-3"/><rect width="200" height="100" x="1400" y="400" class="cls-4"/><rect width="200" height="100" x="1600" y="400" class="cls-5"/><polygon points="400 150 200 150 0 100 200 100 400 150" class="cls-8"/><polygon points="600 150 400 150 200 100 400 100 600 150" class="cls-9"/><polygon points="800 150 600 150 400 100 600 100 800 150" class="cls-10"/><polygon points="1200 150 1000 150 800 100 1000 100 1200 150" class="cls-11"/><polygon points="1400 150 1200 150 1000 100 1200 100 1400 150" class="cls-12"/><polygon points="1600 150 1400 150 1200 100 1400 100 1600 150" class="cls-13"/><polygon points="600 400 400 400 200 350 400 350 600 400" class="cls-8"/><polygon points="800 400 600 400 400 350 600 350 800 400" class="cls-9"/><polygon points="1000 400 800 400 600 350 800 350 1000 400" class="cls-10"/><polygon points="1200 400 1000 400 800 350 1000 350 1200 400" class="cls-14"/><polygon points="1400 400 1200 400 1000 350 1200 350 1400 400" class="cls-11"/><polygon points="1600 400 1400 400 1200 350 1400 350 1600 400" class="cls-12"/><polygon points="1800 400 1600 400 1400 350 1600 350 1800 400" class="cls-13"/><rect width="200" height="200" x="600" y="150" class="cls-6"/><polygon points="1000 350 1000 150 800 100 900 250 1000 350" class="cls-11"/><polygon points="1000 150 800 150 600 100 800 100 1000 150" class="cls-14"/><rect width="200" height="200" x="800" y="150" class="cls-7"/></g></g></svg>